<?xml version="1.0" encoding="UTF-8"?>
<svg id="Camada_1" data-name="Camada 1" xmlns="http://www.w3.org/2000/svg" xmlns:xlink="http://www.w3.org/1999/xlink" viewBox="0 0 595.44 203.04">
  <defs>
    <style>
      .cls-1 {
        clip-path: url(#clippath-1);
      }

      .cls-2 {
        fill: #fff;
      }

      .cls-3 {
        clip-path: url(#clippath);
      }
    </style>
    <clipPath id="clippath">
      <rect class="cls-2" x="476.49" y="103.22" width="15.02" height="14.52"/>
    </clipPath>
    <clipPath id="clippath-1">
      <rect class="cls-2" x="505.18" y="103.22" width="15.02" height="14.52"/>
    </clipPath>
  </defs>
  <rect class="cls-2" x="491.14" y="88.58" width="14.4" height="44.1"/>
  <g>
    <rect class="cls-2" x="354.35" y="88.73" width="14.1" height="58.35"/>
    <path class="cls-2" d="M410.14,99.12c-1.76,0-3.2.47-4.33,1.41-1.13.94-1.69,2.3-1.69,4.07s.52,3.2,1.57,4.28c1.04,1.08,2.4,1.91,4.08,2.49,1.68.58,3.54,1.14,5.61,1.66,2.06.53,4.11,1.17,6.14,1.91,2.03.75,3.89,1.68,5.56,2.78,1.68,1.11,3.04,2.67,4.08,4.7,1.04,2.02,1.57,4.45,1.57,7.27,0,4.93-1.99,9.16-5.98,12.67-3.99,3.52-9.23,5.28-15.75,5.28s-11.76-1.58-15.74-4.74c-3.99-3.16-5.98-7.65-5.98-13.47h15c.38,4.65,2.75,6.98,7.09,6.98,2.03,0,3.63-.54,4.78-1.62,1.15-1.08,1.73-2.45,1.73-4.12s-.52-3.02-1.57-4.07c-1.04-1.05-2.4-1.88-4.08-2.49-1.68-.61-3.54-1.18-5.61-1.7-2.06-.53-4.11-1.18-6.14-1.95-2.03-.78-3.89-1.7-5.56-2.78-1.68-1.08-3.04-2.63-4.08-4.66-1.05-2.02-1.57-4.42-1.57-7.19,0-5.43,2-9.78,6.02-13.05,4.01-3.27,9.14-4.9,15.37-4.9s11.28,1.43,15.13,4.28c3.85,2.85,5.85,7.36,6.02,13.51h-15.33c-.22-2.11-.89-3.73-2.02-4.86-1.13-1.13-2.57-1.7-4.33-1.7"/>
    <rect class="cls-2" x="16.16" y="88.56" width="14.13" height="58.5"/>
    <polygon class="cls-2" points="117.97 88.56 117.97 147.07 103.84 147.07 103.84 114.07 90.37 147.07 79.87 147.07 66.4 114.07 66.4 147.07 52.27 147.07 52.27 88.56 68.47 88.56 85.16 128.9 101.77 88.56 117.97 88.56"/>
    <polygon class="cls-2" points="332.5 88.4 332.5 99.23 311.51 99.23 311.51 111.81 330.02 111.81 330.02 122.65 311.51 122.65 311.51 136.23 332.5 136.23 332.5 147.07 297.37 147.07 297.37 88.4 332.5 88.4"/>
    <path class="cls-2" d="M189.84,96.19c-1.76-1.74-3.66-3.17-5.67-4.38l-5.18,12.75c.29.27.57.54.84.84,2.78,3.06,4.18,7.14,4.18,12.25s-1.39,9.19-4.18,12.25c-2.78,3.06-6.5,4.59-11.15,4.59s-8.38-1.53-11.16-4.59c-2.78-3.06-4.17-7.14-4.17-12.25s1.39-9.2,4.17-12.25c2.78-3.06,6.5-4.59,11.16-4.59.1,0,.2.01.3.01l4.43-12.75c-1.5-.21-3.04-.34-4.64-.34-8.35,0-15.4,2.82-21.16,8.46-5.76,5.64-8.64,12.8-8.64,21.46s2.88,15.83,8.64,21.5c5.76,5.67,12.8,8.5,21.12,8.5s15.35-2.84,21.08-8.5c5.73-5.67,8.6-12.83,8.6-21.5s-2.85-15.82-8.56-21.46"/>
    <polygon class="cls-2" points="579.28 147.07 505.55 147.07 505.55 132.54 564.88 132.54 564.88 65.19 520.68 31.33 476.49 65.19 476.49 103.22 462.09 103.22 462.09 57.98 520.68 13.09 579.28 57.98 579.28 147.07"/>
    <g>
      <rect class="cls-2" x="476.49" y="103.22" width="15.02" height="14.52"/>
      <g class="cls-3">
        <rect class="cls-2" x="476.49" y="103.22" width="15.02" height="14.52"/>
      </g>
    </g>
    <g>
      <rect class="cls-2" x="505.18" y="103.22" width="15.02" height="14.52"/>
      <g class="cls-1">
        <rect class="cls-2" x="505.18" y="103.22" width="15.02" height="14.52"/>
      </g>
    </g>
    <polygon class="cls-2" points="237.88 147.21 217.3 88.71 232.34 88.71 246.72 133.29 261.1 88.71 276.14 88.71 255.56 147.21 237.88 147.21"/>
    <g>
      <path class="cls-2" d="M471.12,159.76v25.07h9.93v4.74h-15.98v-29.81h6.05Z"/>
      <path class="cls-2" d="M495.34,189.95c-6.95,0-12.01-4.78-12.01-12.21s4.92-12.21,12.01-12.21,11.79,4.66,11.79,11.7c0,.77-.04,1.54-.17,2.31h-17.49c.3,3.5,2.72,5.47,5.74,5.47,2.59,0,4.02-1.28,4.79-2.86h6.52c-1.3,4.36-5.27,7.82-11.19,7.82ZM489.51,175.52h11.36c-.09-3.12-2.59-5.08-5.7-5.08-2.89,0-5.18,1.84-5.66,5.08Z"/>
      <path class="cls-2" d="M510.89,159.59c0-1.96,1.55-3.5,3.71-3.5s3.71,1.54,3.71,3.5-1.6,3.5-3.71,3.5-3.71-1.54-3.71-3.5ZM511.53,165.91h6.05v23.66h-6.05v-23.66Z"/>
      <path class="cls-2" d="M529.58,189.57h-6.05v-23.66h6.05v3.67c1.51-2.43,4.02-4.01,7.34-4.01v6.28h-1.6c-3.58,0-5.74,1.37-5.74,5.94v11.79Z"/>
      <path class="cls-2" d="M540.33,159.59c0-1.96,1.55-3.5,3.71-3.5s3.71,1.54,3.71,3.5-1.6,3.5-3.71,3.5-3.71-1.54-3.71-3.5ZM540.98,165.91h6.05v23.66h-6.05v-23.66Z"/>
      <path class="cls-2" d="M562.36,165.52c3.84,0,6.48,1.79,7.9,3.76v-3.37h6.09v23.66h-6.09v-3.46c-1.43,2.05-4.15,3.84-7.95,3.84-6.05,0-10.88-4.91-10.88-12.3s4.84-12.13,10.93-12.13ZM563.91,170.78c-3.24,0-6.3,2.39-6.3,6.88s3.07,7.05,6.3,7.05,6.35-2.48,6.35-6.96-3.02-6.96-6.35-6.96Z"/>
    </g>
  </g>
</svg>