<?xml version="1.0" encoding="UTF-8"?>
<svg id="Camada_1" data-name="Camada 1" xmlns="http://www.w3.org/2000/svg" viewBox="0 0 160 160">
  <defs>
    <style>
      .cls-1 {
        fill: #4b0607;
      }
      .cls-2 {
        fill: #faf9f6;
      }
      .cls-3 {
        fill: #c50611;
      }
      .cls-4 {
        fill: #f3f3f0;
      }
      .cls-5 {
        fill: #f9f7f4;
      }
      .cls-6 {
        fill: #dc020c;
      }
      .cls-7 {
        fill: #a50e0d;
      }
      .cls-8 {
        fill: #d5050f;
      }
      .cls-9 {
        fill: #100102;
      }
    </style>
  </defs>
  <g>
    <path class="cls-9" d="m80,0C35.82,0,0,35.82,0,80s35.82,80,80,80,80-35.82,80-80S124.18,0,80,0Z"/>
    <path class="cls-8" d="m80,154.5c-41.05,0-74.5-33.45-74.5-74.5S38.95,5.5,80,5.5s74.5,33.45,74.5,74.5-33.45,74.5-74.5,74.5Z"/>
  </g>
  <g>
    <polygon class="cls-6" points="111.48 57.37 111.48 51.35 80 33.16 48.52 51.35 48.52 57.38 80 39.17 111.48 57.37"/>
    <polygon class="cls-7" points="80 83.5 48.52 65.31 48.52 75.03 80 93.22 111.48 75.03 111.48 65.31 80 83.5"/>
    <polygon class="cls-5" points="80 46.84 56.02 60.66 63.64 65.06 80 55.66 96.36 65.06 103.98 60.66 80 46.84"/>
    <polygon class="cls-4" points="56.02 74.15 80 87.98 103.98 74.15 96.36 69.75 80 79.16 63.64 69.75 56.02 74.15"/>
    <polygon class="cls-1" points="80 97.76 48.52 79.56 48.52 85.59 80 103.78 111.48 85.59 111.48 79.56 80 97.76"/>
    <polygon class="cls-2" points="80 61.42 60.92 72.36 68.53 76.77 80 70.14 91.47 76.77 99.08 72.36 80 61.42"/>
    <polygon class="cls-3" points="80 109.3 48.52 91.11 48.52 97.14 80 115.33 111.48 97.14 111.48 91.11 80 109.3"/>
  </g>
</svg>
